Coordinates
version=1
nRows=60
nColumns=12
inDegrees=yes

Units are S.I. units (second, meters, Newtons, ...)
Angles are in degrees

endheader
time	SC_y	SC_z	SC_x	AC_y	AC_z	AC_x	GH_y	GH_z	GH_yy	EL_x	PS_y
       0.0              -40.12          21.57          57.72          56.44          2.123         -4.321         -44.42         -6.981          111.1          119.5          112.5
   0.02336              -40.12          21.57          57.72          56.44           2.12         -4.319          -44.4         -6.971          111.1          119.5          112.5
   0.04673              -40.12          21.57          57.72          56.44          2.117         -4.318         -44.39         -6.962          111.1          119.5          112.5
   0.07009              -40.12          21.57          57.72          56.43          2.113         -4.316         -44.37         -6.952          111.0          119.5          112.5
   0.09345              -40.11          21.57          57.72          56.43          2.109         -4.314         -44.36         -6.941          111.0          119.5          112.5
    0.1168              -40.11          21.57          57.72          56.43          2.106         -4.312         -44.34         -6.929          111.0          119.5          112.5
    0.1402              -40.11          21.58          57.72          56.43          2.101         -4.309         -44.32         -6.917          110.9          119.5          112.5
    0.1635              -40.11          21.58          57.72          56.43          2.097         -4.307          -44.3         -6.903          110.9          119.5          112.5
    0.1869              -40.11          21.58          57.72          56.42          2.092         -4.304         -44.28         -6.889          110.8          119.5          112.5
    0.2103              -40.11          21.58          57.72          56.42          2.087         -4.301         -44.26         -6.874          110.8          119.5          112.5
    0.2336              -40.11          21.58          57.72          56.42          2.082         -4.298         -44.23         -6.858          110.8          119.5          112.5
     0.257               -40.1          21.59          57.73          56.41          2.076         -4.295          -44.2          -6.84          110.7          119.5          112.5
    0.2804               -40.1          21.59          57.73          56.41          2.069         -4.292         -44.17         -6.821          110.6          119.5          112.5
    0.3037               -40.1          21.59          57.73          56.41          2.062         -4.288         -44.14           -6.8          110.6          119.5          112.5
    0.3271               -40.1           21.6          57.73           56.4          2.055         -4.284         -44.11         -6.778          110.5          119.5          112.5
    0.3504              -40.09           21.6          57.73           56.4          2.047         -4.279         -44.07         -6.754          110.5          119.4          112.6
    0.3738              -40.09           21.6          57.73          56.39          2.038         -4.274         -44.03         -6.728          110.4          119.4          112.6
    0.3972              -40.09          21.61          57.73          56.39          2.028         -4.269         -43.99         -6.699          110.3          119.4          112.6
    0.4205              -40.09          21.61          57.73          56.38          2.018         -4.263         -43.94         -6.668          110.2          119.4          112.6
    0.4439              -40.08          21.62          57.73          56.38          2.006         -4.257         -43.89         -6.634          110.1          119.4          112.6
    0.4673              -40.08          21.62          57.73          56.37          1.994          -4.25         -43.83         -6.597          110.0          119.4          112.6
    0.4906              -40.07          21.63          57.74          56.36           1.98         -4.242         -43.77         -6.555          109.9          119.4          112.6
     0.514              -40.07          21.64          57.74          56.35          1.965         -4.234          -43.7          -6.51          109.7          119.4          112.6
    0.5374              -40.06          21.64          57.74          56.34          1.948         -4.225         -43.62          -6.46          109.6          119.4          112.6
    0.5607              -40.06          21.65          57.74          56.33          1.929         -4.214         -43.54         -6.404          109.4          119.4          112.6
    0.5841              -40.05          21.66          57.74          56.32          1.908         -4.203         -43.44         -6.341          109.3          119.4          112.6
    0.6074              -40.04          21.67          57.75          56.31          1.884          -4.19         -43.33         -6.271          109.0          119.4          112.7
    0.6308              -40.04          21.68          57.75           56.3          1.858         -4.175         -43.21         -6.192          108.8          119.4          112.7
    0.6542              -40.03           21.7          57.75          56.28          1.828         -4.158         -43.08         -6.103          108.6          119.4          112.7
    0.6775              -40.02          21.71          57.76          56.26          1.794          -4.14         -42.92         -6.002          108.3          119.4          112.7
    0.7009               -40.0          21.73          57.76          56.24          1.755         -4.118         -42.74         -5.886          107.9          119.4          112.7
    0.7243              -39.99          21.75          57.77          56.22          1.711         -4.094         -42.54         -5.754          107.5          119.4          112.8
    0.7476              -39.97          21.77          57.77          56.19          1.659         -4.065         -42.31         -5.601          107.1          119.4          112.8
     0.771              -39.95           21.8          57.78          56.16          1.599         -4.032         -42.04         -5.423          106.6          119.3          112.8
    0.7944              -39.93          21.83          57.79          56.12          1.529         -3.994         -41.72         -5.215          106.0          119.3          112.9
    0.8177              -39.91          21.86           57.8          56.07          1.447         -3.948         -41.34          -4.97          105.3          119.3          112.9
    0.8411              -39.88          21.91          57.81          56.02          1.349         -3.894          -40.9         -4.679          104.4          119.3          113.0
    0.8644              -39.84          21.96          57.82          55.96          1.232          -3.83         -40.36          -4.33          103.4          119.3          113.1
    0.8878              -39.79          22.02          57.84          55.88           1.09         -3.751         -39.72         -3.907          102.2          119.2          113.2
    0.9112              -39.74           22.1          57.86          55.79         0.9162         -3.656         -38.93         -3.391          100.7          119.2          113.3
    0.9345              -39.67          22.19          57.88          55.67         0.7021         -3.537         -37.95         -2.754          98.83          119.1          113.4
    0.9579              -39.59          22.31          57.91          55.53         0.4351          -3.39         -36.74          -1.96          96.52          119.1          113.6
    0.9813              -39.48          22.46          57.95          55.34        0.09873         -3.205         -35.21        -0.9597          93.62          119.0          113.8
     1.005              -39.35          22.65           58.0          55.11        -0.3289         -2.969         -33.26         0.3121          89.92          118.9          114.0
     1.028              -39.18          22.89          58.06          54.82        -0.8761         -2.667         -30.77           1.94          85.19          118.8          114.4
     1.051              -38.95           23.2          58.15          54.44         -1.578         -2.279         -27.57          4.029          79.12          118.6          114.8
     1.075              -38.67          23.59          58.25          53.95         -2.476         -1.785         -23.49          6.698          71.37          118.4          115.4
     1.098              -38.32          24.09          58.38          53.34         -3.604         -1.162         -18.35          10.05          61.62          118.1          116.1
     1.121              -37.89           24.7          58.54           52.6         -4.978         -0.404          -12.1          14.14          49.74          117.8          117.0
     1.145              -37.38           25.4          58.72          51.73         -6.572         0.4749         -4.845          18.88          35.97          117.4          118.0
     1.168              -36.84          26.16          58.92           50.8         -8.297          1.427          3.007          24.01          21.07          117.0          119.0
     1.192               -36.3          26.92          59.12          49.86         -10.02          2.378          10.86          29.14          6.156          116.6          120.1
     1.215               -35.8          27.62           59.3           49.0         -11.62          3.257          18.11          33.88         -7.613          116.2          121.1
     1.238              -35.37          28.23          59.46          48.26         -12.99          4.016          24.37          37.97         -19.49          115.9          122.0
     1.262              -35.01          28.72          59.59          47.65         -14.12          4.638           29.5          41.33         -29.24          115.6          122.7
     1.285              -34.73          29.12          59.69          47.16         -15.02          5.133          33.59           44.0         -36.99          115.4          123.2
     1.308              -34.51          29.43          59.77          46.78         -15.72           5.52          36.78          46.09         -43.06          115.2          123.7
     1.332              -34.34          29.67          59.83          46.48         -16.26          5.822          39.27          47.71         -47.79          115.1          124.0
     1.355               -34.2          29.86          59.88          46.25         -16.69          6.058          41.22          48.99         -51.49          115.0          124.3
     1.378               -34.1          30.01          59.92          46.07         -17.03          6.243          42.75          49.99         -54.39          114.9          124.5
